<?xml version="1.0" encoding="utf-8"?>
<!-- Generator: Adobe Illustrator 16.0.0, SVG Export Plug-In . SVG Version: 6.00 Build 0)  -->
<!DOCTYPE svg PUBLIC "-//W3C//DTD SVG 1.1//EN" "http://www.w3.org/Graphics/SVG/1.1/DTD/svg11.dtd">
<svg version="1.1" xmlns="http://www.w3.org/2000/svg" xmlns:xlink="http://www.w3.org/1999/xlink" x="0px" y="0px"
	 width="453.54px" height="340.16px" viewBox="0 0 453.54 340.16" enable-background="new 0 0 453.54 340.16" xml:space="preserve">
<g id="concept">
	<g id="Layer_4">
	</g>
	<g id="Layer_6">
	</g>
</g>
<g id="content">
</g>
<g id="development_1_">
</g>
<g id="deploy">
	<path fill="none" stroke="#FFFFFF" stroke-width="6" stroke-miterlimit="10" d="M277.926,187.36
		c1.571-11.334,24.601-30.092,53.046-30.092c33.941,0,61.632,26.736,63.176,60.297c0.872-0.056,1.749-0.093,2.635-0.093
		c22.827,0,41.333,18.506,41.333,41.333s-18.506,41.333-41.333,41.333v0.16l-70.923,0.332"/>
	<path fill="none" stroke="#FFFFFF" stroke-width="6" stroke-miterlimit="10" d="M226.526,299.393h-27.783
		c-14.575,0-26.392-11.816-26.392-26.393c0-14.575,11.816-26.392,26.392-26.392c2.907,0,7.198,1.225,9.738,2.537"/>
	<path fill="none" stroke="#FFFFFF" stroke-width="6" stroke-miterlimit="10" d="M360.525,239.146
		c5.568-10.842,18.055-21.673,36.257-21.673c22.827,0,41.333,18.506,41.333,41.333s-18.506,41.333-41.333,41.333"/>
	<path fill="#FFFFFF" d="M338.703,220.745l-12.798,0.654c-4.026-5.732-8.958-10.607-14.518-14.512l0.653-12.799
		c-5.113-2.902-10.57-5.162-16.236-6.727l-8.59,9.514c-6.69-1.17-13.626-1.212-20.524-0.004l-8.588-9.512
		c-2.797,0.773-5.575,1.723-8.324,2.861s-5.386,2.432-7.911,3.863l0.654,12.797c-5.732,4.025-10.607,8.959-14.51,14.518
		l-12.802-0.654c-2.901,5.113-5.161,10.57-6.725,16.236l9.513,8.59c-1.171,6.691-1.212,13.627-0.005,20.526l-9.512,8.588
		c0.774,2.797,1.724,5.575,2.862,8.324c1.139,2.748,2.432,5.386,3.861,7.909l12.799-0.653c4.025,5.733,8.959,10.608,14.518,14.511
		l-0.654,12.801c5.113,2.9,10.57,5.16,16.237,6.725l8.59-9.514c6.69,1.172,13.625,1.212,20.524,0.006l8.588,9.512
		c2.797-0.773,5.576-1.725,8.324-2.863c2.75-1.139,5.387-2.432,7.91-3.861l-0.652-12.799c5.731-4.025,10.606-8.957,14.51-14.518
		l12.801,0.654c2.901-5.113,5.161-10.57,6.727-16.236l-9.516-8.59c1.172-6.689,1.213-13.625,0.006-20.525l9.512-8.588
		c-0.773-2.796-1.724-5.576-2.861-8.324C341.427,225.907,340.134,223.271,338.703,220.745z M297.236,304.795
		c-27.041,11.2-58.042-1.641-69.244-28.682c-11.199-27.042,1.641-58.042,28.682-69.243c27.04-11.2,58.043,1.64,69.242,28.682
		C337.117,262.593,324.276,293.595,297.236,304.795z"/>
	<circle fill="#FFFFFF" cx="276.955" cy="255.833" r="9.225"/>
</g>
</svg>
