<?xml version="1.0" encoding="utf-8"?>
<!-- Generator: Adobe Illustrator 16.0.0, SVG Export Plug-In . SVG Version: 6.00 Build 0)  -->
<!DOCTYPE svg PUBLIC "-//W3C//DTD SVG 1.1//EN" "http://www.w3.org/Graphics/SVG/1.1/DTD/svg11.dtd">
<svg version="1.1" xmlns="http://www.w3.org/2000/svg" xmlns:xlink="http://www.w3.org/1999/xlink" x="0px" y="0px"
	 width="453.54px" height="340.16px" viewBox="0 0 453.54 340.16" enable-background="new 0 0 453.54 340.16" xml:space="preserve">
<g id="concept">
	<g id="Layer_4">
	</g>
	<g id="Layer_6">
	</g>
</g>
<g id="content">
	
		<rect x="146.342" y="233.877" fill="none" stroke="#FFFFFF" stroke-width="9" stroke-miterlimit="10" width="286.696" height="81.97"/>
	
		<line fill="none" stroke="#FFFFFF" stroke-width="4" stroke-miterlimit="10" x1="145.835" y1="249.059" x2="433.038" y2="249.059"/>
	
		<line fill="none" stroke="#FFFFFF" stroke-width="4" stroke-miterlimit="10" x1="433.038" y1="301.175" x2="145.835" y2="301.175"/>
	<line fill="none" stroke="#FFFFFF" stroke-width="4" stroke-miterlimit="10" x1="386.18" y1="301.175" x2="386.18" y2="249.059"/>
	
		<line fill="none" stroke="#FFFFFF" stroke-width="4" stroke-miterlimit="10" x1="338.617" y1="301.175" x2="338.617" y2="249.059"/>
	
		<line fill="none" stroke="#FFFFFF" stroke-width="4" stroke-miterlimit="10" x1="291.056" y1="301.175" x2="291.056" y2="249.059"/>
	
		<line fill="none" stroke="#FFFFFF" stroke-width="4" stroke-miterlimit="10" x1="243.492" y1="301.175" x2="243.492" y2="249.059"/>
	
		<line fill="none" stroke="#FFFFFF" stroke-width="4" stroke-miterlimit="10" x1="195.931" y1="301.175" x2="195.931" y2="249.059"/>
	
		<line fill="none" stroke="#FFFFFF" stroke-width="4" stroke-miterlimit="10" x1="419.575" y1="249.059" x2="419.575" y2="233.877"/>
	
		<line fill="none" stroke="#FFFFFF" stroke-width="4" stroke-miterlimit="10" x1="405.913" y1="249.059" x2="405.913" y2="233.877"/>
	
		<line fill="none" stroke="#FFFFFF" stroke-width="4" stroke-miterlimit="10" x1="392.251" y1="249.059" x2="392.251" y2="233.877"/>
	
		<line fill="none" stroke="#FFFFFF" stroke-width="4" stroke-miterlimit="10" x1="378.591" y1="249.059" x2="378.591" y2="233.877"/>
	
		<line fill="none" stroke="#FFFFFF" stroke-width="4" stroke-miterlimit="10" x1="364.929" y1="249.059" x2="364.929" y2="233.877"/>
	
		<line fill="none" stroke="#FFFFFF" stroke-width="4" stroke-miterlimit="10" x1="351.267" y1="249.059" x2="351.267" y2="233.877"/>
	
		<line fill="none" stroke="#FFFFFF" stroke-width="4" stroke-miterlimit="10" x1="337.604" y1="249.059" x2="337.604" y2="233.877"/>
	
		<line fill="none" stroke="#FFFFFF" stroke-width="4" stroke-miterlimit="10" x1="323.944" y1="249.059" x2="323.944" y2="233.877"/>
	
		<line fill="none" stroke="#FFFFFF" stroke-width="4" stroke-miterlimit="10" x1="310.282" y1="249.059" x2="310.282" y2="233.877"/>
	<line fill="none" stroke="#FFFFFF" stroke-width="4" stroke-miterlimit="10" x1="296.62" y1="249.059" x2="296.62" y2="233.877"/>
	
		<line fill="none" stroke="#FFFFFF" stroke-width="4" stroke-miterlimit="10" x1="282.958" y1="249.059" x2="282.958" y2="233.877"/>
	
		<line fill="none" stroke="#FFFFFF" stroke-width="4" stroke-miterlimit="10" x1="269.298" y1="249.059" x2="269.298" y2="233.877"/>
	
		<line fill="none" stroke="#FFFFFF" stroke-width="4" stroke-miterlimit="10" x1="255.636" y1="249.059" x2="255.636" y2="233.877"/>
	
		<line fill="none" stroke="#FFFFFF" stroke-width="4" stroke-miterlimit="10" x1="241.974" y1="249.059" x2="241.974" y2="233.877"/>
	
		<line fill="none" stroke="#FFFFFF" stroke-width="4" stroke-miterlimit="10" x1="228.312" y1="249.059" x2="228.312" y2="233.877"/>
	<line fill="none" stroke="#FFFFFF" stroke-width="4" stroke-miterlimit="10" x1="214.65" y1="249.059" x2="214.65" y2="233.877"/>
	
		<line fill="none" stroke="#FFFFFF" stroke-width="4" stroke-miterlimit="10" x1="200.988" y1="249.059" x2="200.988" y2="233.877"/>
	
		<line fill="none" stroke="#FFFFFF" stroke-width="4" stroke-miterlimit="10" x1="187.327" y1="249.059" x2="187.327" y2="233.877"/>
	
		<line fill="none" stroke="#FFFFFF" stroke-width="4" stroke-miterlimit="10" x1="173.665" y1="249.059" x2="173.665" y2="233.877"/>
	
		<line fill="none" stroke="#FFFFFF" stroke-width="4" stroke-miterlimit="10" x1="160.004" y1="249.059" x2="160.004" y2="233.877"/>
	
		<line fill="none" stroke="#FFFFFF" stroke-width="4" stroke-miterlimit="10" x1="419.575" y1="316.355" x2="419.575" y2="301.175"/>
	
		<line fill="none" stroke="#FFFFFF" stroke-width="4" stroke-miterlimit="10" x1="405.913" y1="316.355" x2="405.913" y2="301.175"/>
	
		<line fill="none" stroke="#FFFFFF" stroke-width="4" stroke-miterlimit="10" x1="392.251" y1="316.355" x2="392.251" y2="301.175"/>
	
		<line fill="none" stroke="#FFFFFF" stroke-width="4" stroke-miterlimit="10" x1="378.591" y1="316.355" x2="378.591" y2="301.175"/>
	
		<line fill="none" stroke="#FFFFFF" stroke-width="4" stroke-miterlimit="10" x1="364.929" y1="316.355" x2="364.929" y2="301.175"/>
	
		<line fill="none" stroke="#FFFFFF" stroke-width="4" stroke-miterlimit="10" x1="351.267" y1="316.355" x2="351.267" y2="301.175"/>
	
		<line fill="none" stroke="#FFFFFF" stroke-width="4" stroke-miterlimit="10" x1="337.604" y1="316.355" x2="337.604" y2="301.175"/>
	
		<line fill="none" stroke="#FFFFFF" stroke-width="4" stroke-miterlimit="10" x1="323.944" y1="316.355" x2="323.944" y2="301.175"/>
	
		<line fill="none" stroke="#FFFFFF" stroke-width="4" stroke-miterlimit="10" x1="310.282" y1="316.355" x2="310.282" y2="301.175"/>
	<line fill="none" stroke="#FFFFFF" stroke-width="4" stroke-miterlimit="10" x1="296.62" y1="316.355" x2="296.62" y2="301.175"/>
	
		<line fill="none" stroke="#FFFFFF" stroke-width="4" stroke-miterlimit="10" x1="282.958" y1="316.355" x2="282.958" y2="301.175"/>
	
		<line fill="none" stroke="#FFFFFF" stroke-width="4" stroke-miterlimit="10" x1="269.298" y1="316.355" x2="269.298" y2="301.175"/>
	
		<line fill="none" stroke="#FFFFFF" stroke-width="4" stroke-miterlimit="10" x1="255.636" y1="316.355" x2="255.636" y2="301.175"/>
	
		<line fill="none" stroke="#FFFFFF" stroke-width="4" stroke-miterlimit="10" x1="241.974" y1="316.355" x2="241.974" y2="301.175"/>
	
		<line fill="none" stroke="#FFFFFF" stroke-width="4" stroke-miterlimit="10" x1="228.312" y1="316.355" x2="228.312" y2="301.175"/>
	<line fill="none" stroke="#FFFFFF" stroke-width="4" stroke-miterlimit="10" x1="214.65" y1="316.355" x2="214.65" y2="301.175"/>
	
		<line fill="none" stroke="#FFFFFF" stroke-width="4" stroke-miterlimit="10" x1="200.988" y1="316.355" x2="200.988" y2="301.175"/>
	
		<line fill="none" stroke="#FFFFFF" stroke-width="4" stroke-miterlimit="10" x1="187.327" y1="316.355" x2="187.327" y2="301.175"/>
	
		<line fill="none" stroke="#FFFFFF" stroke-width="4" stroke-miterlimit="10" x1="173.665" y1="316.355" x2="173.665" y2="301.175"/>
	
		<line fill="none" stroke="#FFFFFF" stroke-width="4" stroke-miterlimit="10" x1="160.004" y1="316.355" x2="160.004" y2="301.175"/>
	
		<rect x="209.589" y="130.655" fill="none" stroke="#FFFFFF" stroke-width="9" stroke-miterlimit="10" width="200.261" height="103.222"/>
	<circle fill="none" stroke="#FFFFFF" stroke-width="4" stroke-miterlimit="10" cx="360.314" cy="162.354" r="16.867"/>
	<polyline fill="none" stroke="#FFFFFF" stroke-width="4" stroke-miterlimit="10" points="235.661,235.142 285.216,183.531 
		337.703,235.142 	"/>
	<polyline fill="none" stroke="#FFFFFF" stroke-width="4" stroke-miterlimit="10" points="373.123,235.142 324.041,186.061 
		305.894,204.207 	"/>
</g>
<g id="development_1_">
</g>
<g id="deploy">
</g>
</svg>
