<?xml version="1.0" encoding="utf-8"?>
<!-- Generator: Adobe Illustrator 16.0.0, SVG Export Plug-In . SVG Version: 6.00 Build 0)  -->
<!DOCTYPE svg PUBLIC "-//W3C//DTD SVG 1.1//EN" "http://www.w3.org/Graphics/SVG/1.1/DTD/svg11.dtd">
<svg version="1.1" xmlns="http://www.w3.org/2000/svg" xmlns:xlink="http://www.w3.org/1999/xlink" x="0px" y="0px"
	 width="453.54px" height="340.16px" viewBox="0 0 453.54 340.16" enable-background="new 0 0 453.54 340.16" xml:space="preserve">
<g id="concept">
	<g id="Layer_4">
		<polyline fill="none" stroke="#FFFFFF" stroke-width="6" stroke-miterlimit="10" points="387.948,230.914 371.007,209.667 
			366.413,272.547 381.057,287.19 		"/>
		<path fill="none" stroke="#FFFFFF" stroke-width="6" stroke-miterlimit="10" d="M391.967,221.718
			c-10.049,19.82-16.079,51.979-6.029,102.8h11.772C407.76,288.052,402.016,242.669,391.967,221.718z"/>
		<path fill="none" stroke="#FFFFFF" stroke-width="6" stroke-miterlimit="10" d="M323.631,224.311
			c-8.326-114.277,13.028-149.836,29.107-184.578c16.078,34.742,37.794,70.301,29.467,184.578"/>
		<polyline fill="none" stroke="#FFFFFF" stroke-width="6" stroke-miterlimit="10" points="317.889,230.914 334.829,209.667 
			339.423,272.547 324.779,287.19 		"/>
		<path fill="none" stroke="#FFFFFF" stroke-width="6" stroke-miterlimit="10" d="M313.869,221.718
			c10.049,19.82,16.079,51.979,6.029,102.8h-11.772C298.076,288.052,303.82,242.669,313.869,221.718z"/>
		<polyline fill="none" stroke="#FFFFFF" stroke-width="6" stroke-miterlimit="10" points="332.102,279.869 336.265,292.359 
			336.265,312.745 353.205,312.745 352.631,312.745 369.571,312.745 369.571,292.359 373.735,279.869 		"/>
		
			<line fill="none" stroke="#FFFFFF" stroke-width="6" stroke-miterlimit="10" x1="367.204" y1="261.728" x2="339.423" y2="261.728"/>
		
			<line fill="none" stroke="#FFFFFF" stroke-width="6" stroke-miterlimit="10" x1="369.571" y1="292.503" x2="336.265" y2="292.503"/>
		<circle fill="none" stroke="#FFFFFF" stroke-width="3" stroke-miterlimit="10" cx="352.906" cy="130.563" r="8.003"/>
		<g>
			<path fill="#FFFFFF" d="M352.906,117.153c7.406,0,13.411,6.004,13.411,13.411c0,7.406-6.005,13.411-13.411,13.411
				s-13.411-6.004-13.411-13.411C339.495,123.157,345.5,117.153,352.906,117.153 M352.906,111.153
				c-10.703,0-19.411,8.708-19.411,19.411s8.708,19.411,19.411,19.411s19.411-8.708,19.411-19.411S363.609,111.153,352.906,111.153
				L352.906,111.153z"/>
		</g>
		<line fill="none" stroke="#FFFFFF" stroke-width="2" stroke-miterlimit="10" x1="373.239" y1="89.388" x2="332.438" y2="89.388"/>
		
			<line fill="none" stroke="#FFFFFF" stroke-width="6" stroke-miterlimit="10" x1="322.999" y1="305.854" x2="304.392" y2="305.854"/>
		<line fill="none" stroke="#FFFFFF" stroke-width="6" stroke-miterlimit="10" x1="373.736" y1="89.388" x2="331.941" y2="89.388"/>
		
			<line fill="none" stroke="#FFFFFF" stroke-width="6" stroke-miterlimit="10" x1="401.171" y1="305.854" x2="382.563" y2="305.854"/>
	</g>
	<g id="Layer_6">
		<line fill="none" stroke="#FFFFFF" stroke-width="2" stroke-miterlimit="10" x1="456.464" y1="215.25" x2="250.163" y2="215.25"/>
		<line fill="none" stroke="#FFFFFF" stroke-width="2" stroke-miterlimit="10" x1="456.858" y1="202" x2="278.983" y2="202"/>
		<line fill="none" stroke="#FFFFFF" stroke-width="2" stroke-miterlimit="10" x1="456.858" y1="326.75" x2="278.983" y2="326.75"/>
		
			<line fill="none" stroke="#FFFFFF" stroke-width="2" stroke-miterlimit="10" x1="432.309" y1="130.563" x2="247.974" y2="130.563"/>
		<line fill="none" stroke="#FFFFFF" stroke-width="2" stroke-miterlimit="10" x1="416.373" y1="89.388" x2="373.239" y2="89.388"/>
		<line fill="none" stroke="#FFFFFF" stroke-width="2" stroke-miterlimit="10" x1="416.373" y1="39.732" x2="269.077" y2="39.732"/>
		<line fill="none" stroke="#FFFFFF" stroke-width="2" stroke-miterlimit="10" x1="377.181" y1="28.059" x2="325.063" y2="28.059"/>
		<line fill="none" stroke="#FFFFFF" stroke-width="2" stroke-miterlimit="10" x1="394.807" y1="11.693" x2="309.132" y2="11.693"/>
		
			<line fill="none" stroke="#FFFFFF" stroke-width="2" stroke-miterlimit="10" x1="424.557" y1="216.271" x2="424.557" y2="328.681"/>
		
			<line fill="none" stroke="#FFFFFF" stroke-width="2" stroke-miterlimit="10" x1="416.373" y1="305.854" x2="384.046" y2="305.854"/>
		<line fill="none" stroke="#FFFFFF" stroke-width="2" stroke-miterlimit="10" x1="300.25" y1="365.755" x2="300.25" y2="94.385"/>
		
			<line fill="none" stroke="#FFFFFF" stroke-width="2" stroke-miterlimit="10" x1="412.928" y1="296.307" x2="412.928" y2="328.681"/>
		<line fill="none" stroke="#FFFFFF" stroke-width="2" stroke-miterlimit="10" x1="405.25" y1="363.136" x2="405.25" y2="81.896"/>
		<line fill="none" stroke="#FFFFFF" stroke-width="2" stroke-miterlimit="10" x1="385.499" y1="2.648" x2="385.499" y2="175.25"/>
		<line fill="none" stroke="#FFFFFF" stroke-width="2" stroke-miterlimit="10" x1="385.499" y1="321.148" x2="385.499" y2="348"/>
		<line fill="none" stroke="#FFFFFF" stroke-width="2" stroke-miterlimit="10" x1="288.458" y1="28.059" x2="288.458" y2="215.25"/>
		
			<line fill="none" stroke="#FFFFFF" stroke-width="2" stroke-miterlimit="10" x1="272.953" y1="31.074" x2="272.953" y2="299.824"/>
		
			<line fill="none" stroke="#FFFFFF" stroke-width="2" stroke-miterlimit="10" x1="262.049" y1="292.503" x2="450.398" y2="292.503"/>
		<line fill="none" stroke="#FFFFFF" stroke-width="2" stroke-miterlimit="10" x1="320.186" y1="2.648" x2="320.186" y2="175.25"/>
		<g>
			<g>
				
					<line fill="none" stroke="#FFFFFF" stroke-width="2" stroke-miterlimit="10" x1="352.838" y1="4.959" x2="352.838" y2="10.959"/>
				
					<line fill="none" stroke="#FFFFFF" stroke-width="2" stroke-miterlimit="10" stroke-dasharray="11.8222,11.8222" x1="352.838" y1="22.782" x2="352.838" y2="324.249"/>
				
					<line fill="none" stroke="#FFFFFF" stroke-width="2" stroke-miterlimit="10" x1="352.838" y1="330.16" x2="352.838" y2="336.16"/>
			</g>
		</g>
	</g>
	<line fill="none" stroke="#FFFFFF" stroke-width="2" stroke-miterlimit="10" x1="282.75" y1="45.625" x2="294.125" y2="34.25"/>
	<line fill="none" stroke="#FFFFFF" stroke-width="2" stroke-miterlimit="10" x1="314.498" y1="45.625" x2="325.873" y2="34.25"/>
	<line fill="none" stroke="#FFFFFF" stroke-width="2" stroke-miterlimit="10" x1="378.357" y1="17.38" x2="389.732" y2="6.005"/>
	<line fill="none" stroke="#FFFFFF" stroke-width="2" stroke-miterlimit="10" x1="399.563" y1="94.637" x2="410.938" y2="83.262"/>
	
		<line fill="none" stroke="#FFFFFF" stroke-width="2" stroke-miterlimit="10" x1="399.563" y1="136.251" x2="410.938" y2="124.876"/>
	
		<line fill="none" stroke="#FFFFFF" stroke-width="2" stroke-miterlimit="10" x1="294.563" y1="136.251" x2="305.938" y2="124.876"/>
	
		<line fill="none" stroke="#FFFFFF" stroke-width="2" stroke-miterlimit="10" x1="267.266" y1="220.938" x2="278.641" y2="209.563"/>
	<line fill="none" stroke="#FFFFFF" stroke-width="2" stroke-miterlimit="10" x1="267.266" y1="298.19" x2="278.641" y2="286.815"/>
	
		<line fill="none" stroke="#FFFFFF" stroke-width="2" stroke-miterlimit="10" x1="418.869" y1="220.938" x2="430.244" y2="209.563"/>
	<line fill="none" stroke="#FFFFFF" stroke-width="2" stroke-miterlimit="10" x1="418.869" y1="298.19" x2="430.244" y2="286.815"/>
</g>
<g id="content">
</g>
<g id="development_1_">
</g>
<g id="deploy">
</g>
</svg>
