<?xml version="1.0" encoding="utf-8"?>
<!-- Generator: Adobe Illustrator 16.0.0, SVG Export Plug-In . SVG Version: 6.00 Build 0)  -->
<!DOCTYPE svg PUBLIC "-//W3C//DTD SVG 1.1//EN" "http://www.w3.org/Graphics/SVG/1.1/DTD/svg11.dtd">
<svg version="1.1" xmlns="http://www.w3.org/2000/svg" xmlns:xlink="http://www.w3.org/1999/xlink" x="0px" y="0px"
	 width="453.54px" height="340.16px" viewBox="0 0 453.54 340.16" enable-background="new 0 0 453.54 340.16" xml:space="preserve">
<g id="concept">
	<g id="Layer_4">
	</g>
	<g id="Layer_6">
	</g>
</g>
<g id="content">
</g>
<g id="development_1_">
	<text transform="matrix(1 0 0 1 103.5254 175.25)" display="none"><tspan x="0" y="0" display="inline" fill="#FFFFFF" font-family="'Consolas'" font-size="77.9372">01100001 </tspan><tspan x="0" y="74" display="inline" fill="#FFFFFF" font-family="'Consolas'" font-size="77.9372">01101111</tspan><tspan x="0" y="148" display="inline" fill="#FFFFFF" font-family="'Consolas'" font-size="77.9372">01110100</tspan></text>
	<g>
		<path fill="#FFFFFF" d="M143.025,150.4c0,3.806-0.379,7.275-1.141,10.408s-1.916,5.822-3.463,8.068
			c-1.549,2.245-3.471,3.983-5.766,5.213c-2.297,1.23-4.992,1.846-8.086,1.846c-2.664,0-5.088-0.502-7.27-1.504
			s-4.047-2.543-5.594-4.623c-1.549-2.08-2.74-4.731-3.578-7.954c-0.836-3.222-1.256-7.04-1.256-11.455
			c0-3.806,0.387-7.281,1.162-10.427c0.773-3.146,1.928-5.841,3.463-8.086c1.533-2.246,3.455-3.983,5.766-5.214
			c2.307-1.23,4.996-1.846,8.066-1.846c2.664,0,5.086,0.501,7.27,1.503c2.182,1.002,4.045,2.55,5.594,4.643
			c1.547,2.093,2.74,4.751,3.576,7.973C142.607,142.168,143.025,145.986,143.025,150.4z M113.572,150.172
			c0,0.787,0.006,1.574,0.018,2.359c0.014,0.787,0.059,1.548,0.135,2.284l21.043-15.565c-0.379-1.293-0.861-2.474-1.445-3.539
			s-1.281-1.985-2.094-2.759s-1.738-1.376-2.777-1.808c-1.041-0.431-2.207-0.647-3.502-0.647c-1.725,0-3.291,0.418-4.699,1.256
			c-1.408,0.837-2.607,2.087-3.596,3.749c-0.99,1.662-1.75,3.717-2.283,6.165C113.838,144.115,113.572,146.951,113.572,150.172z
			 M136.328,150.629c0-0.862-0.031-1.719-0.094-2.569c-0.064-0.85-0.135-1.681-0.211-2.493l-21.043,15.641
			c0.379,1.319,0.861,2.537,1.445,3.653c0.584,1.117,1.287,2.074,2.111,2.873c0.824,0.799,1.764,1.421,2.816,1.865
			c1.053,0.444,2.252,0.666,3.596,0.666c1.727,0,3.293-0.418,4.701-1.256c1.408-0.837,2.605-2.08,3.596-3.729
			c0.99-1.648,1.75-3.697,2.283-6.146S136.328,153.851,136.328,150.629z"/>
		<path fill="#FFFFFF" d="M184.316,175.25h-31.244v-6.165h12.787v-36.305l-11.91,6.469l-2.436-5.632l15.83-8.334h5.861v43.802
			h11.111V175.25z"/>
		<path fill="#FFFFFF" d="M227.166,175.25h-31.244v-6.165h12.787v-36.305l-11.91,6.469l-2.436-5.632l15.83-8.334h5.861v43.802
			h11.111V175.25z"/>
		<path fill="#FFFFFF" d="M271.576,150.4c0,3.806-0.379,7.275-1.141,10.408s-1.916,5.822-3.463,8.068
			c-1.549,2.245-3.471,3.983-5.766,5.213c-2.297,1.23-4.992,1.846-8.086,1.846c-2.664,0-5.088-0.502-7.27-1.504
			s-4.047-2.543-5.594-4.623c-1.549-2.08-2.74-4.731-3.578-7.954c-0.836-3.222-1.256-7.04-1.256-11.455
			c0-3.806,0.387-7.281,1.162-10.427c0.773-3.146,1.928-5.841,3.463-8.086c1.533-2.246,3.455-3.983,5.766-5.214
			c2.307-1.23,4.996-1.846,8.066-1.846c2.664,0,5.086,0.501,7.27,1.503c2.182,1.002,4.045,2.55,5.594,4.643
			c1.547,2.093,2.74,4.751,3.576,7.973C271.158,142.168,271.576,145.986,271.576,150.4z M242.123,150.172
			c0,0.787,0.006,1.574,0.018,2.359c0.014,0.787,0.059,1.548,0.135,2.284l21.043-15.565c-0.379-1.293-0.861-2.474-1.445-3.539
			s-1.281-1.985-2.094-2.759s-1.738-1.376-2.777-1.808c-1.041-0.431-2.207-0.647-3.502-0.647c-1.725,0-3.291,0.418-4.699,1.256
			c-1.408,0.837-2.607,2.087-3.596,3.749c-0.99,1.662-1.75,3.717-2.283,6.165C242.389,144.115,242.123,146.951,242.123,150.172z
			 M264.879,150.629c0-0.862-0.031-1.719-0.094-2.569c-0.064-0.85-0.135-1.681-0.211-2.493l-21.043,15.641
			c0.379,1.319,0.861,2.537,1.445,3.653c0.584,1.117,1.287,2.074,2.111,2.873c0.824,0.799,1.764,1.421,2.816,1.865
			c1.053,0.444,2.252,0.666,3.596,0.666c1.727,0,3.293-0.418,4.701-1.256c1.408-0.837,2.605-2.08,3.596-3.729
			c0.99-1.648,1.75-3.697,2.283-6.146S264.879,153.851,264.879,150.629z"/>
		<path fill="#FFFFFF" d="M314.428,150.4c0,3.806-0.381,7.275-1.143,10.408c-0.76,3.133-1.914,5.822-3.463,8.068
			c-1.547,2.245-3.469,3.983-5.766,5.213c-2.295,1.23-4.99,1.846-8.086,1.846c-2.664,0-5.086-0.502-7.268-1.504
			c-2.184-1.002-4.047-2.543-5.596-4.623c-1.547-2.08-2.738-4.731-3.576-7.954c-0.838-3.222-1.256-7.04-1.256-11.455
			c0-3.806,0.387-7.281,1.16-10.427c0.773-3.146,1.928-5.841,3.463-8.086c1.535-2.246,3.457-3.983,5.766-5.214
			c2.309-1.23,4.998-1.846,8.068-1.846c2.664,0,5.086,0.501,7.268,1.503c2.182,1.002,4.047,2.55,5.594,4.643
			c1.549,2.093,2.74,4.751,3.578,7.973C314.01,142.168,314.428,145.986,314.428,150.4z M284.973,150.172
			c0,0.787,0.006,1.574,0.02,2.359c0.012,0.787,0.057,1.548,0.133,2.284l21.045-15.565c-0.381-1.293-0.863-2.474-1.447-3.539
			s-1.281-1.985-2.092-2.759c-0.813-0.774-1.738-1.376-2.779-1.808c-1.039-0.431-2.207-0.647-3.5-0.647
			c-1.727,0-3.291,0.418-4.699,1.256c-1.408,0.837-2.607,2.087-3.598,3.749c-0.988,1.662-1.75,3.717-2.283,6.165
			C285.238,144.115,284.973,146.951,284.973,150.172z M307.73,150.629c0-0.862-0.033-1.719-0.096-2.569
			c-0.064-0.85-0.133-1.681-0.209-2.493l-21.045,15.641c0.381,1.319,0.861,2.537,1.445,3.653c0.584,1.117,1.289,2.074,2.113,2.873
			c0.824,0.799,1.762,1.421,2.816,1.865c1.053,0.444,2.25,0.666,3.596,0.666c1.725,0,3.291-0.418,4.699-1.256
			c1.408-0.837,2.607-2.08,3.596-3.729c0.99-1.648,1.752-3.697,2.285-6.146C307.463,156.686,307.73,153.851,307.73,150.629z"/>
		<path fill="#FFFFFF" d="M357.277,150.4c0,3.806-0.381,7.275-1.143,10.408c-0.76,3.133-1.914,5.822-3.463,8.068
			c-1.547,2.245-3.469,3.983-5.766,5.213c-2.295,1.23-4.99,1.846-8.086,1.846c-2.664,0-5.086-0.502-7.268-1.504
			c-2.184-1.002-4.047-2.543-5.596-4.623c-1.547-2.08-2.738-4.731-3.576-7.954c-0.838-3.222-1.256-7.04-1.256-11.455
			c0-3.806,0.387-7.281,1.16-10.427c0.773-3.146,1.928-5.841,3.463-8.086c1.535-2.246,3.457-3.983,5.766-5.214
			c2.309-1.23,4.998-1.846,8.068-1.846c2.664,0,5.086,0.501,7.268,1.503c2.182,1.002,4.047,2.55,5.594,4.643
			c1.549,2.093,2.74,4.751,3.578,7.973C356.859,142.168,357.277,145.986,357.277,150.4z M327.822,150.172
			c0,0.787,0.006,1.574,0.02,2.359c0.012,0.787,0.057,1.548,0.133,2.284l21.045-15.565c-0.381-1.293-0.863-2.474-1.447-3.539
			s-1.281-1.985-2.092-2.759c-0.813-0.774-1.738-1.376-2.779-1.808c-1.039-0.431-2.207-0.647-3.5-0.647
			c-1.727,0-3.291,0.418-4.699,1.256c-1.408,0.837-2.607,2.087-3.598,3.749c-0.988,1.662-1.75,3.717-2.283,6.165
			C328.088,144.115,327.822,146.951,327.822,150.172z M350.58,150.629c0-0.862-0.033-1.719-0.096-2.569
			c-0.064-0.85-0.133-1.681-0.209-2.493l-21.045,15.641c0.381,1.319,0.861,2.537,1.445,3.653c0.584,1.117,1.289,2.074,2.113,2.873
			c0.824,0.799,1.762,1.421,2.816,1.865c1.053,0.444,2.25,0.666,3.596,0.666c1.725,0,3.291-0.418,4.699-1.256
			c1.408-0.837,2.607-2.08,3.596-3.729c0.99-1.648,1.752-3.697,2.285-6.146C350.313,156.686,350.58,153.851,350.58,150.629z"/>
		<path fill="#FFFFFF" d="M400.127,150.4c0,3.806-0.379,7.275-1.141,10.408s-1.916,5.822-3.463,8.068
			c-1.549,2.245-3.471,3.983-5.766,5.213c-2.297,1.23-4.992,1.846-8.086,1.846c-2.664,0-5.088-0.502-7.27-1.504
			s-4.047-2.543-5.594-4.623c-1.549-2.08-2.74-4.731-3.578-7.954c-0.836-3.222-1.256-7.04-1.256-11.455
			c0-3.806,0.387-7.281,1.162-10.427c0.773-3.146,1.928-5.841,3.463-8.086c1.533-2.246,3.455-3.983,5.766-5.214
			c2.307-1.23,4.996-1.846,8.066-1.846c2.664,0,5.086,0.501,7.27,1.503c2.182,1.002,4.045,2.55,5.594,4.643
			c1.547,2.093,2.74,4.751,3.576,7.973C399.709,142.168,400.127,145.986,400.127,150.4z M370.674,150.172
			c0,0.787,0.006,1.574,0.018,2.359c0.014,0.787,0.059,1.548,0.135,2.284l21.043-15.565c-0.379-1.293-0.861-2.474-1.445-3.539
			s-1.281-1.985-2.094-2.759s-1.738-1.376-2.777-1.808c-1.041-0.431-2.207-0.647-3.502-0.647c-1.725,0-3.291,0.418-4.699,1.256
			c-1.408,0.837-2.607,2.087-3.596,3.749c-0.99,1.662-1.75,3.717-2.283,6.165C370.939,144.115,370.674,146.951,370.674,150.172z
			 M393.43,150.629c0-0.862-0.031-1.719-0.094-2.569c-0.064-0.85-0.135-1.681-0.211-2.493l-21.043,15.641
			c0.379,1.319,0.861,2.537,1.445,3.653c0.584,1.117,1.287,2.074,2.111,2.873c0.824,0.799,1.764,1.421,2.816,1.865
			c1.053,0.444,2.252,0.666,3.596,0.666c1.727,0,3.293-0.418,4.701-1.256c1.408-0.837,2.605-2.08,3.596-3.729
			c0.99-1.648,1.75-3.697,2.283-6.146S393.43,153.851,393.43,150.629z"/>
		<path fill="#FFFFFF" d="M441.418,175.25h-31.244v-6.165h12.787v-36.305l-11.91,6.469l-2.436-5.632l15.83-8.334h5.861v43.802
			h11.111V175.25z"/>
		<path fill="#FFFFFF" d="M143.025,224.4c0,3.805-0.379,7.274-1.141,10.408c-0.762,3.133-1.916,5.822-3.463,8.067
			c-1.549,2.245-3.471,3.983-5.766,5.213c-2.297,1.23-4.992,1.846-8.086,1.846c-2.664,0-5.088-0.501-7.27-1.503
			s-4.047-2.543-5.594-4.624c-1.549-2.079-2.74-4.731-3.578-7.953c-0.836-3.222-1.256-7.04-1.256-11.454
			c0-3.807,0.387-7.281,1.162-10.428c0.773-3.146,1.928-5.842,3.463-8.086c1.533-2.246,3.455-3.983,5.766-5.215
			c2.307-1.229,4.996-1.846,8.066-1.846c2.664,0,5.086,0.502,7.27,1.504c2.182,1.002,4.045,2.55,5.594,4.643
			c1.547,2.094,2.74,4.751,3.576,7.973C142.607,216.168,143.025,219.985,143.025,224.4z M113.572,224.172
			c0,0.786,0.006,1.573,0.018,2.359c0.014,0.787,0.059,1.547,0.135,2.283l21.043-15.564c-0.379-1.294-0.861-2.475-1.445-3.539
			c-0.584-1.066-1.281-1.985-2.094-2.76c-0.813-0.773-1.738-1.375-2.777-1.807c-1.041-0.432-2.207-0.647-3.502-0.647
			c-1.725,0-3.291,0.419-4.699,1.256s-2.607,2.087-3.596,3.749c-0.99,1.661-1.75,3.717-2.283,6.164
			C113.838,218.115,113.572,220.95,113.572,224.172z M136.328,224.629c0-0.863-0.031-1.719-0.094-2.569
			c-0.064-0.85-0.135-1.681-0.211-2.493l-21.043,15.641c0.379,1.32,0.861,2.537,1.445,3.654c0.584,1.116,1.287,2.073,2.111,2.873
			c0.824,0.799,1.764,1.421,2.816,1.864c1.053,0.444,2.252,0.666,3.596,0.666c1.727,0,3.293-0.419,4.701-1.256
			s2.605-2.08,3.596-3.729c0.99-1.648,1.75-3.697,2.283-6.146S136.328,227.851,136.328,224.629z"/>
		<path fill="#FFFFFF" d="M184.316,249.25h-31.244v-6.165h12.787V206.78l-11.91,6.47l-2.436-5.633l15.83-8.334h5.861v43.802h11.111
			V249.25z"/>
		<path fill="#FFFFFF" d="M227.166,249.25h-31.244v-6.165h12.787V206.78l-11.91,6.47l-2.436-5.633l15.83-8.334h5.861v43.802h11.111
			V249.25z"/>
		<path fill="#FFFFFF" d="M271.576,224.4c0,3.805-0.379,7.274-1.141,10.408c-0.762,3.133-1.916,5.822-3.463,8.067
			c-1.549,2.245-3.471,3.983-5.766,5.213c-2.297,1.23-4.992,1.846-8.086,1.846c-2.664,0-5.088-0.501-7.27-1.503
			s-4.047-2.543-5.594-4.624c-1.549-2.079-2.74-4.731-3.578-7.953c-0.836-3.222-1.256-7.04-1.256-11.454
			c0-3.807,0.387-7.281,1.162-10.428c0.773-3.146,1.928-5.842,3.463-8.086c1.533-2.246,3.455-3.983,5.766-5.215
			c2.307-1.229,4.996-1.846,8.066-1.846c2.664,0,5.086,0.502,7.27,1.504c2.182,1.002,4.045,2.55,5.594,4.643
			c1.547,2.094,2.74,4.751,3.576,7.973C271.158,216.168,271.576,219.985,271.576,224.4z M242.123,224.172
			c0,0.786,0.006,1.573,0.018,2.359c0.014,0.787,0.059,1.547,0.135,2.283l21.043-15.564c-0.379-1.294-0.861-2.475-1.445-3.539
			c-0.584-1.066-1.281-1.985-2.094-2.76c-0.813-0.773-1.738-1.375-2.777-1.807c-1.041-0.432-2.207-0.647-3.502-0.647
			c-1.725,0-3.291,0.419-4.699,1.256s-2.607,2.087-3.596,3.749c-0.99,1.661-1.75,3.717-2.283,6.164
			C242.389,218.115,242.123,220.95,242.123,224.172z M264.879,224.629c0-0.863-0.031-1.719-0.094-2.569
			c-0.064-0.85-0.135-1.681-0.211-2.493l-21.043,15.641c0.379,1.32,0.861,2.537,1.445,3.654c0.584,1.116,1.287,2.073,2.111,2.873
			c0.824,0.799,1.764,1.421,2.816,1.864c1.053,0.444,2.252,0.666,3.596,0.666c1.727,0,3.293-0.419,4.701-1.256
			s2.605-2.08,3.596-3.729c0.99-1.648,1.75-3.697,2.283-6.146S264.879,227.851,264.879,224.629z"/>
		<path fill="#FFFFFF" d="M312.867,249.25h-31.244v-6.165h12.787V206.78l-11.91,6.47l-2.436-5.633l15.83-8.334h5.861v43.802h11.111
			V249.25z"/>
		<path fill="#FFFFFF" d="M355.717,249.25h-31.244v-6.165h12.787V206.78l-11.91,6.47l-2.436-5.633l15.83-8.334h5.861v43.802h11.111
			V249.25z"/>
		<path fill="#FFFFFF" d="M398.568,249.25h-31.244v-6.165h12.787V206.78l-11.912,6.47l-2.436-5.633l15.832-8.334h5.859v43.802
			h11.113V249.25z"/>
		<path fill="#FFFFFF" d="M441.418,249.25h-31.244v-6.165h12.787V206.78l-11.91,6.47l-2.436-5.633l15.83-8.334h5.861v43.802h11.111
			V249.25z"/>
		<path fill="#FFFFFF" d="M143.025,298.4c0,3.805-0.379,7.274-1.141,10.407c-0.762,3.134-1.916,5.823-3.463,8.068
			c-1.549,2.245-3.471,3.983-5.766,5.213c-2.297,1.23-4.992,1.846-8.086,1.846c-2.664,0-5.088-0.501-7.27-1.503
			s-4.047-2.543-5.594-4.624c-1.549-2.079-2.74-4.73-3.578-7.953c-0.836-3.222-1.256-7.04-1.256-11.454
			c0-3.806,0.387-7.281,1.162-10.428c0.773-3.146,1.928-5.842,3.463-8.087c1.533-2.245,3.455-3.982,5.766-5.213
			c2.307-1.23,4.996-1.846,8.066-1.846c2.664,0,5.086,0.501,7.27,1.503c2.182,1.002,4.045,2.55,5.594,4.643
			c1.547,2.093,2.74,4.751,3.576,7.973C142.607,290.168,143.025,293.985,143.025,298.4z M113.572,298.172
			c0,0.786,0.006,1.573,0.018,2.359c0.014,0.786,0.059,1.548,0.135,2.283l21.043-15.564c-0.379-1.294-0.861-2.474-1.445-3.539
			s-1.281-1.985-2.094-2.76c-0.813-0.773-1.738-1.376-2.777-1.808c-1.041-0.431-2.207-0.646-3.502-0.646
			c-1.725,0-3.291,0.419-4.699,1.256s-2.607,2.087-3.596,3.748c-0.99,1.662-1.75,3.717-2.283,6.165
			C113.838,292.115,113.572,294.95,113.572,298.172z M136.328,298.628c0-0.862-0.031-1.718-0.094-2.568
			c-0.064-0.85-0.135-1.681-0.211-2.493l-21.043,15.642c0.379,1.319,0.861,2.537,1.445,3.653s1.287,2.073,2.111,2.873
			c0.824,0.799,1.764,1.421,2.816,1.864c1.053,0.444,2.252,0.666,3.596,0.666c1.727,0,3.293-0.419,4.701-1.256
			s2.605-2.08,3.596-3.729c0.99-1.648,1.75-3.697,2.283-6.146S136.328,301.851,136.328,298.628z"/>
		<path fill="#FFFFFF" d="M184.316,323.25h-31.244v-6.165h12.787V280.78l-11.91,6.47l-2.436-5.633l15.83-8.334h5.861v43.802h11.111
			V323.25z"/>
		<path fill="#FFFFFF" d="M227.166,323.25h-31.244v-6.165h12.787V280.78l-11.91,6.47l-2.436-5.633l15.83-8.334h5.861v43.802h11.111
			V323.25z"/>
		<path fill="#FFFFFF" d="M270.018,323.25h-31.244v-6.165h12.787V280.78l-11.912,6.47l-2.436-5.633l15.832-8.334h5.859v43.802
			h11.113V323.25z"/>
		<path fill="#FFFFFF" d="M314.428,298.4c0,3.805-0.381,7.274-1.143,10.407c-0.76,3.134-1.914,5.823-3.463,8.068
			c-1.547,2.245-3.469,3.983-5.766,5.213c-2.295,1.23-4.99,1.846-8.086,1.846c-2.664,0-5.086-0.501-7.268-1.503
			c-2.184-1.002-4.047-2.543-5.596-4.624c-1.547-2.079-2.738-4.73-3.576-7.953c-0.838-3.222-1.256-7.04-1.256-11.454
			c0-3.806,0.387-7.281,1.16-10.428c0.773-3.146,1.928-5.842,3.463-8.087s3.457-3.982,5.766-5.213s4.998-1.846,8.068-1.846
			c2.664,0,5.086,0.501,7.268,1.503s4.047,2.55,5.594,4.643c1.549,2.093,2.74,4.751,3.578,7.973
			C314.01,290.168,314.428,293.985,314.428,298.4z M284.973,298.172c0,0.786,0.006,1.573,0.02,2.359
			c0.012,0.786,0.057,1.548,0.133,2.283l21.045-15.564c-0.381-1.294-0.863-2.474-1.447-3.539s-1.281-1.985-2.092-2.76
			c-0.813-0.773-1.738-1.376-2.779-1.808c-1.039-0.431-2.207-0.646-3.5-0.646c-1.727,0-3.291,0.419-4.699,1.256
			s-2.607,2.087-3.598,3.748c-0.988,1.662-1.75,3.717-2.283,6.165C285.238,292.115,284.973,294.95,284.973,298.172z M307.73,298.628
			c0-0.862-0.033-1.718-0.096-2.568c-0.064-0.85-0.133-1.681-0.209-2.493l-21.045,15.642c0.381,1.319,0.861,2.537,1.445,3.653
			s1.289,2.073,2.113,2.873c0.824,0.799,1.762,1.421,2.816,1.864c1.053,0.444,2.25,0.666,3.596,0.666
			c1.725,0,3.291-0.419,4.699-1.256s2.607-2.08,3.596-3.729c0.99-1.648,1.752-3.697,2.285-6.146
			C307.463,304.686,307.73,301.851,307.73,298.628z"/>
		<path fill="#FFFFFF" d="M355.717,323.25h-31.244v-6.165h12.787V280.78l-11.91,6.47l-2.436-5.633l15.83-8.334h5.861v43.802h11.111
			V323.25z"/>
		<path fill="#FFFFFF" d="M400.127,298.4c0,3.805-0.379,7.274-1.141,10.407c-0.762,3.134-1.916,5.823-3.463,8.068
			c-1.549,2.245-3.471,3.983-5.766,5.213c-2.297,1.23-4.992,1.846-8.086,1.846c-2.664,0-5.088-0.501-7.27-1.503
			s-4.047-2.543-5.594-4.624c-1.549-2.079-2.74-4.73-3.578-7.953c-0.836-3.222-1.256-7.04-1.256-11.454
			c0-3.806,0.387-7.281,1.162-10.428c0.773-3.146,1.928-5.842,3.463-8.087c1.533-2.245,3.455-3.982,5.766-5.213
			c2.307-1.23,4.996-1.846,8.066-1.846c2.664,0,5.086,0.501,7.27,1.503c2.182,1.002,4.045,2.55,5.594,4.643
			c1.547,2.093,2.74,4.751,3.576,7.973C399.709,290.168,400.127,293.985,400.127,298.4z M370.674,298.172
			c0,0.786,0.006,1.573,0.018,2.359c0.014,0.786,0.059,1.548,0.135,2.283l21.043-15.564c-0.379-1.294-0.861-2.474-1.445-3.539
			s-1.281-1.985-2.094-2.76c-0.813-0.773-1.738-1.376-2.777-1.808c-1.041-0.431-2.207-0.646-3.502-0.646
			c-1.725,0-3.291,0.419-4.699,1.256s-2.607,2.087-3.596,3.748c-0.99,1.662-1.75,3.717-2.283,6.165
			C370.939,292.115,370.674,294.95,370.674,298.172z M393.43,298.628c0-0.862-0.031-1.718-0.094-2.568
			c-0.064-0.85-0.135-1.681-0.211-2.493l-21.043,15.642c0.379,1.319,0.861,2.537,1.445,3.653s1.287,2.073,2.111,2.873
			c0.824,0.799,1.764,1.421,2.816,1.864c1.053,0.444,2.252,0.666,3.596,0.666c1.727,0,3.293-0.419,4.701-1.256
			s2.605-2.08,3.596-3.729c0.99-1.648,1.75-3.697,2.283-6.146S393.43,301.851,393.43,298.628z"/>
		<path fill="#FFFFFF" d="M442.979,298.4c0,3.805-0.381,7.274-1.143,10.407c-0.76,3.134-1.914,5.823-3.463,8.068
			c-1.547,2.245-3.469,3.983-5.766,5.213c-2.295,1.23-4.99,1.846-8.086,1.846c-2.664,0-5.086-0.501-7.268-1.503
			c-2.184-1.002-4.047-2.543-5.596-4.624c-1.547-2.079-2.738-4.73-3.576-7.953c-0.838-3.222-1.256-7.04-1.256-11.454
			c0-3.806,0.387-7.281,1.16-10.428c0.773-3.146,1.928-5.842,3.463-8.087s3.457-3.982,5.766-5.213s4.998-1.846,8.068-1.846
			c2.664,0,5.086,0.501,7.268,1.503s4.047,2.55,5.594,4.643c1.549,2.093,2.74,4.751,3.578,7.973
			C442.561,290.168,442.979,293.985,442.979,298.4z M413.523,298.172c0,0.786,0.006,1.573,0.02,2.359
			c0.012,0.786,0.057,1.548,0.133,2.283l21.045-15.564c-0.381-1.294-0.863-2.474-1.447-3.539s-1.281-1.985-2.092-2.76
			c-0.813-0.773-1.738-1.376-2.779-1.808c-1.039-0.431-2.207-0.646-3.5-0.646c-1.727,0-3.291,0.419-4.699,1.256
			s-2.607,2.087-3.598,3.748c-0.988,1.662-1.75,3.717-2.283,6.165C413.789,292.115,413.523,294.95,413.523,298.172z
			 M436.281,298.628c0-0.862-0.033-1.718-0.096-2.568c-0.064-0.85-0.133-1.681-0.209-2.493l-21.045,15.642
			c0.381,1.319,0.861,2.537,1.445,3.653s1.289,2.073,2.113,2.873c0.824,0.799,1.762,1.421,2.816,1.864
			c1.053,0.444,2.25,0.666,3.596,0.666c1.725,0,3.291-0.419,4.699-1.256s2.607-2.08,3.596-3.729c0.99-1.648,1.752-3.697,2.285-6.146
			C436.014,304.686,436.281,301.851,436.281,298.628z"/>
	</g>
</g>
<g id="deploy">
</g>
</svg>
